# xmcd
#
# Track frame offsets:
#	182
#	11117
#	22805
#	32425
#	43465
#	56340
#	68627
#	78190
#	91485
#	103107
#	112912
#	125150
#	139917
#	149725
#	164320
#	174320
#	188402
#	198935
#	211462
#	224860
#	233345
#	244942
#	254032
#	266792
#	277535
#	289735
#	307065
#	319815
#	328095
#	340890
#
# Disc length: 4693 seconds
#
# Revision: 0
# Processed by: cddbd v1.5.2PL0 Copyright (c) Steve Scherf et al.
# Submitted via: EasyCDDAExtractor 2010.6.0.0
#
DISCID=c312531e
DTITLE=Various Artist - Tribute To Elvis
DYEAR=1900
DGENRE=
TTITLE0=Parker Little Junior - Mystery Train
TTITLE1=Mann Carl - I'm Comin' Home
TTITLE2=Sisk Shirley - I Forgot To Remember To Forget
TTITLE3=Cash Johnny - I Love You Because
TTITLE4=Thomas Rufus - Bear Cat (Answer To Hound Dog)
TTITLE5=Lewis Jerry Lee - Good Rockin' Tonight
TTITLE6=Labeef Sleepy - Baby Let's Play House
TTITLE7=Lee Johnny - Blueberry Hill
TTITLE8=Dudley Dave - Wooden Heart
TTITLE9=Miller Ned - From A Jack To A King
TTITLE10=Labeef Sleepy - Big Boss Man
TTITLE11=Sumner J. D. - Green Green Grass Of Home
TTITLE12=Four Upsetters - Crazy Arms
TTITLE13=Coe David Allan - Why Me
TTITLE14=Tennessee Guitars - Gentle On My Mind
TTITLE15=Enerson Billy The Kid - When It Rains It Really Pours
TTITLE16=Riley Jeannie C. - Help Me Make It Through The Night
TTITLE17=Kellum Murry - Little Egypt
TTITLE18=Adams Billy - Reconsider Baby
TTITLE19=Felts Narvel - My Babe
TTITLE20=Labeef Sleepy - Blue Moon Of Kentucky
TTITLE21=Lewis Jerry Lee - Don't Be Cruel
TTITLE22=O'Gwynn James - She Thinks I Still Care
TTITLE23=Rich Charlie - Unchained Melody
TTITLE24=Ellis Jimmy - Burning Love
TTITLE25=Labeef Sleepy - Faded Love
TTITLE26=Cline Pasy - Just A Closer Walk With Thee
TTITLE27=Dempsey Little Jimmy - Wonder Of You
TTITLE28=Dudley Dave - Fools Rush In
TTITLE29=Wilcox Harlow - Milkcow Blues
EXTD=
EXTT0=
EXTT1=
EXTT2=
EXTT3=
EXTT4=
EXTT5=
EXTT6=
EXTT7=
EXTT8=
EXTT9=
EXTT10=
EXTT11=
EXTT12=
EXTT13=
EXTT14=
EXTT15=
EXTT16=
EXTT17=
EXTT18=
EXTT19=
EXTT20=
EXTT21=
EXTT22=
EXTT23=
EXTT24=
EXTT25=
EXTT26=
EXTT27=
EXTT28=
EXTT29=
PLAYORDER=
